<svg width="23" height="24" viewBox="0 0 23 24" fill="none" xmlns="http://www.w3.org/2000/svg">
<path fill-rule="evenodd" clip-rule="evenodd" d="M10.3876 0.723389C5.04793 0.723389 0.722137 5.05893 0.722137 10.4035C0.722137 15.7481 5.04793 20.0837 10.3876 20.0837C12.4499 20.0837 14.361 19.437 15.93 18.3352L15.9383 18.3435L20.2711 22.6836L20.9776 23.3913L22.393 21.9783L21.6865 21.2706L17.443 17.0199C19.062 15.2888 20.0531 12.9618 20.0531 10.4035C20.0531 5.05893 15.7273 0.723389 10.3876 0.723389ZM2.72214 10.4035C2.72214 6.16031 6.15569 2.72339 10.3876 2.72339C14.6196 2.72339 18.0531 6.16031 18.0531 10.4035C18.0531 14.6468 14.6196 18.0837 10.3876 18.0837C6.15569 18.0837 2.72214 14.6468 2.72214 10.4035Z" fill="white"/>
</svg>
