<svg width="33" height="18" viewBox="0 0 33 18" fill="none" xmlns="http://www.w3.org/2000/svg">
<path d="M16.9492 6.40845V6.42822H18.3467V6.40845C18.3467 5.39331 19.052 4.70776 20.1001 4.70776C21.0823 4.70776 21.8271 5.36035 21.8271 6.23047C21.8271 6.9292 21.5173 7.43018 20.2451 8.75513L17.0283 12.1038V13.1716H23.4355V11.8467H19.085V11.7346L21.2009 9.59229C22.7961 7.97729 23.2839 7.15332 23.2839 6.14478C23.2839 4.57593 21.9524 3.42896 20.1462 3.42896C18.2742 3.42896 16.9492 4.65503 16.9492 6.40845ZM29.3541 13.1716H30.7779V11.3325H32.0897V10.0142H30.7779V3.65967H28.6751C26.9811 6.19751 25.5638 8.40576 24.7135 9.96143V11.3325H29.3541V13.1716ZM26.1307 9.95483C27.2513 8.01025 28.3456 6.32275 29.2882 4.95825H29.3739V10.0471H26.1307V9.95483Z" fill="white"/>
<path fill-rule="evenodd" clip-rule="evenodd" d="M9.97752 14.1641C8.97191 14.8022 7.7791 15.1716 6.5 15.1716C2.91015 15.1716 0 12.2615 0 8.67163C0 5.08178 2.91015 2.17163 6.5 2.17163C10.0899 2.17163 13 5.08178 13 8.67163C13 9.95073 12.6305 11.1435 11.9925 12.1492L13 15.1716L9.97752 14.1641Z" fill="white"/>
</svg>
