<svg width="25" height="18" viewBox="0 0 25 18" fill="none" xmlns="http://www.w3.org/2000/svg">
<path d="M20.5417 13.4023C22.5588 13.4023 23.9893 12.0181 23.9893 10.0801C23.9893 8.24097 22.6709 6.90942 20.8647 6.90942C19.7375 6.90942 18.8279 7.43018 18.3665 8.34644H18.2544C18.2874 6.05908 19.1311 4.73413 20.5945 4.73413C21.458 4.73413 22.1304 5.20874 22.3677 5.98657H23.8508C23.5608 4.43091 22.2886 3.42896 20.6077 3.42896C18.228 3.42896 16.8372 5.31421 16.8372 8.5376C16.8372 9.69775 17.0283 10.6667 17.4172 11.4314C18.0369 12.7036 19.1311 13.4023 20.5417 13.4023ZM20.5286 12.1038C19.3948 12.1038 18.5312 11.2336 18.5312 10.0999C18.5312 8.97266 19.375 8.15527 20.5352 8.15527C21.7019 8.15527 22.5259 8.97266 22.5259 10.1262C22.5259 11.2468 21.6624 12.1038 20.5286 12.1038Z" fill="white"/>
<path fill-rule="evenodd" clip-rule="evenodd" d="M7 10.1716C9.20914 10.1716 11 8.38077 11 6.17163C11 3.96249 9.20914 2.17163 7 2.17163C4.79086 2.17163 3 3.96249 3 6.17163C3 8.38077 4.79086 10.1716 7 10.1716Z" fill="white"/>
<path fill-rule="evenodd" clip-rule="evenodd" d="M0 15.1716V14.0288C0 12.4508 1.10837 11.1716 2.4758 11.1716H11.5242C12.8915 11.1716 14 12.454 14 14.0288V15.1716H0Z" fill="white"/>
</svg>
