<svg width="33" height="18" viewBox="0 0 33 18" fill="none" xmlns="http://www.w3.org/2000/svg">
<path fill-rule="evenodd" clip-rule="evenodd" d="M8.15058 14.6143C7.77616 14.9351 7.22384 14.9351 6.84942 14.6143L6.4125 14.24C2.55 10.928 0 8.74248 0 6.06809C0 3.88253 1.81125 2.17163 4.125 2.17163C5.43 2.17163 6.6825 2.74547 7.5 3.64874C8.3175 2.74547 9.57 2.17163 10.875 2.17163C13.1888 2.17163 15 3.88253 15 6.06809C15 8.74248 12.45 10.928 8.5875 14.24L8.15058 14.6143Z" fill="white"/>
<path d="M18.9492 6.40845V6.42822H20.3467V6.40845C20.3467 5.39331 21.052 4.70776 22.1001 4.70776C23.0823 4.70776 23.8271 5.36035 23.8271 6.23047C23.8271 6.9292 23.5173 7.43018 22.2451 8.75513L19.0283 12.1038V13.1716H25.4355V11.8467H21.085V11.7346L23.2009 9.59229C24.7961 7.97729 25.2839 7.15332 25.2839 6.14478C25.2839 4.57593 23.9524 3.42896 22.1462 3.42896C20.2742 3.42896 18.9492 4.65503 18.9492 6.40845ZM29.4293 13.1716H30.9059V3.65967H29.4359L26.931 5.42627V6.93579L29.3172 5.24829H29.4293V13.1716Z" fill="white"/>
</svg>
