<svg width="25" height="12" viewBox="0 0 25 12" fill="none" xmlns="http://www.w3.org/2000/svg">
<path opacity="0.35" d="M0.5 4.59992C0.5 3.84493 0.500389 3.30876 0.534671 2.88917C0.568475 2.47542 0.632728 2.21925 0.736153 2.01627C0.943878 1.60859 1.27534 1.27713 1.68302 1.0694C1.886 0.96598 2.14217 0.901727 2.55592 0.867923C2.97551 0.833641 3.51168 0.833252 4.26667 0.833252H17.7333C18.4883 0.833252 19.0245 0.833641 19.4441 0.867923C19.8578 0.901727 20.114 0.96598 20.317 1.0694C20.7247 1.27713 21.0561 1.60859 21.2638 2.01627C21.3673 2.21925 21.4315 2.47542 21.4653 2.88917C21.4996 3.30876 21.5 3.84493 21.5 4.59992V7.39992C21.5 8.15491 21.4996 8.69108 21.4653 9.11066C21.4315 9.52442 21.3673 9.78058 21.2638 9.98356C21.0561 10.3912 20.7247 10.7227 20.317 10.9304C20.114 11.0339 19.8578 11.0981 19.4441 11.1319C19.0245 11.1662 18.4883 11.1666 17.7333 11.1666H4.26667C3.51168 11.1666 2.97551 11.1662 2.55592 11.1319C2.14217 11.0981 1.886 11.0339 1.68302 10.9304C1.27534 10.7227 0.943878 10.3912 0.736153 9.98356C0.632728 9.78058 0.568475 9.52442 0.534671 9.11066C0.500389 8.69108 0.5 8.15491 0.5 7.39992V4.59992Z" stroke="white"/>
<path opacity="0.4" d="M23 4V8C23.8047 7.66122 24.328 6.87313 24.328 6C24.328 5.12687 23.8047 4.33878 23 4Z" fill="white"/>
<path d="M2 4.46659C2 3.71985 2 3.34648 2.14532 3.06126C2.27316 2.81038 2.47713 2.60641 2.72801 2.47858C3.01323 2.33325 3.3866 2.33325 4.13333 2.33325H17.8667C18.6134 2.33325 18.9868 2.33325 19.272 2.47858C19.5229 2.60641 19.7268 2.81038 19.8547 3.06126C20 3.34648 20 3.71985 20 4.46659V7.53325C20 8.27999 20 8.65336 19.8547 8.93857C19.7268 9.18946 19.5229 9.39343 19.272 9.52126C18.9868 9.66659 18.6134 9.66659 17.8667 9.66659H4.13333C3.3866 9.66659 3.01323 9.66659 2.72801 9.52126C2.47713 9.39343 2.27316 9.18946 2.14532 8.93857C2 8.65336 2 8.27999 2 7.53325V4.46659Z" fill="white"/>
</svg>
